<?xml version="1.0" encoding="UTF-8"?>
<svg id="Layer_1" xmlns="http://www.w3.org/2000/svg" version="1.1" viewBox="0 0 1024 1024">
  <!-- Generator: Adobe Illustrator 29.7.1, SVG Export Plug-In . SVG Version: 2.1.1 Build 8)  -->
  <defs>
    <style>
      .st0 {
        fill: #0a192f;
      }

      .st1 {
        fill: #fdfdfd;
      }
    </style>
  </defs>
  <path class="st0" d="M143.8,24.4l733.8-.4c73,6.7,132.1,62.7,144.2,134.6,4.4,229.5.6,459.6,1.9,689.4-4.6,81.1-69.7,146.4-150.6,152H149.2C71.1,993.7,6.5,930.9.2,852.5V170.1C7,94.4,68.5,32.6,143.8,24.4ZM878.3,393.3c10.5-27.4,24.9-53.7,37.9-80.1,2.9-8.1-14.1-15.9-20.6-19.6-97.4-54.4-328.2-64.5-353.6,78.6-26.4,148.4,121.3,159.8,223.9,189.1,30.3,8.7,83.4,23.8,60.8,67.3-18.7,36-105,25.8-138.2,19-31.4-6.4-60.2-18.5-89-31.9l57.3,124.7c116.9,24,301.3,10.9,289.7-150.7-8.7-121.4-146.4-126.5-236.1-154-25.8-7.9-63.1-18.5-53.2-53.8s74.8-31.9,103-28.7c42.3,4.9,81.1,19.7,118.1,39.9ZM69.9,741.9h116.4l150.5-343.4,49.7,109h116.4l-109.9-240.1-111.1.5-212,474ZM285,642.5h159.5l44.7,99.5,119.2-1.6-84.5-187.7-200.1-.5-38.8,90.3Z"/>
  <path class="st1" d="M878.3,393.3c-37-20.2-75.8-35-118.1-39.9-28.2-3.3-93.1-6.6-103,28.7s27.4,45.9,53.2,53.8c89.7,27.4,227.4,32.6,236.1,154,11.6,161.5-172.8,174.7-289.7,150.7l-57.3-124.7c28.8,13.4,57.6,25.5,89,31.9,33.3,6.7,119.5,16.9,138.2-19,22.7-43.6-30.4-58.7-60.8-67.3-102.5-29.3-250.2-40.7-223.9-189.1,25.4-143,256.2-133,353.6-78.6,6.5,3.7,23.5,11.4,20.6,19.6-13,26.4-27.5,52.7-37.9,80.1Z"/>
  <polygon class="st1" points="69.9 741.9 282 267.9 393.1 267.4 503.1 507.5 386.6 507.5 336.9 398.5 186.4 741.9 69.9 741.9"/>
  <polygon class="st1" points="285 642.5 323.8 552.2 523.9 552.7 608.4 740.4 489.1 742 444.5 642.5 285 642.5"/>
</svg>