<?xml version="1.0" encoding="UTF-8"?><svg id="Layer_2" xmlns="http://www.w3.org/2000/svg" xmlns:xlink="http://www.w3.org/1999/xlink" viewBox="0 0 268.45 68.53"><defs><style>.cls-1{fill:none;}.cls-2{fill:url(#linear-gradient);}.cls-3{clip-path:url(#clippath);}.cls-4{font-family:Roboto-Light, Roboto;font-size:19.86px;}.cls-4,.cls-5{fill:#333b51;}.cls-6{fill:#fff;}.cls-7{letter-spacing:-.02em;}.cls-5{font-family:Roboto-Bold, Roboto;font-size:42.41px;}.cls-8{letter-spacing:0em;}.cls-9{letter-spacing:-.03em;}</style><linearGradient id="linear-gradient" x1="10.04" y1="10.04" x2="58.5" y2="58.5" gradientUnits="userSpaceOnUse"><stop offset="0" stop-color="#00adee"/><stop offset="1" stop-color="#005dc3"/></linearGradient><clipPath id="clippath"><circle class="cls-1" cx="34.27" cy="34.27" r="34.27"/></clipPath></defs><g id="Layer_1-2"><text class="cls-5" transform="translate(79.07 38.65)"><tspan x="0" y="0">SUPPO</tspan><tspan class="cls-7" x="137.97" y="0">R</tspan><tspan class="cls-9" x="164" y="0">T</tspan></text><text class="cls-4" transform="translate(79.17 61.37)"><tspan x="0" y="0">INSURANCE </tspan><tspan class="cls-8" x="112.31" y="0">A</tspan><tspan x="124.6" y="0">GENCY</tspan></text><path class="cls-2" d="M68.53,34.27c0,18.92-15.34,34.27-34.27,34.27S0,53.19,0,34.27,15.34,0,34.27,0s34.27,15.34,34.27,34.27"/><g class="cls-3"><path class="cls-6" d="M59.13,47.06l-.09-3.59-.12-.21-.07-.49-.21,.09-.02,.3-.23,.4h-.89l-.07-.21h-.21l-.09,.23h-.86l-.28-.14-.09-.54h-.14l-.05,.35-.16,.12v1.74c-.55,1.96-1.49,4.88-2.57,7.1,0,.01-.02,.03-.02,.04-.11,.22-.22,.44-.33,.64v-.04c-.03,.05-.06,.1-.08,.15v.05c-.11,.19-.22,.38-.33,.55v-.03s-.06,.1-.09,.14v.03s-.05,.09-.08,.13c-.34-.51-.7-1.13-1.07-1.88v-.09c-.03-.07-.06-.14-.09-.22v.12c-.11-.21-.21-.44-.32-.67v-.18c-.03-.08-.07-.15-.1-.23v.19c-.1-.23-.21-.47-.31-.72v-.21c-.03-.08-.07-.16-.1-.23v.2c-.1-.25-.21-.5-.31-.76v-.17c-.03-.08-.07-.16-.1-.24v.16c-.1-.26-.2-.52-.31-.79v-.09c-.03-.08-.07-.17-.1-.25v.07c-1.02-2.7-2.13-6.1-3.35-10.18-2.98-9.93-7.17-27.95-8.09-31.91l-.05-2.2-.31-.56-.19-1.3-.56,.25-.06,.8-.62,1.05h-2.35l-.19-.56h-.56l-.25,.62h-2.29l-.74-.37-.25-1.42h-.37l-.12,.93-.43,.31v.49l-.07-.04c-.06,.09-6.01,9.28-13.76,16.48C9.15,25.35,3.94,28.53,1.33,29.96l-3.07-1.08c-.21-.09,.11,.05-.09-.04-.07,.22-.3,.37-.2,.59,.52,1.18,.41,9.83,1.55,15.13l1.2,.31s.03,.09,.05,.13l-.04,.08c.05,.22,.1,.44,.14,.65l.08-.2c.27,.77,.57,1.61,.88,2.5l-.34,.27c.06,.22,.12,.44,.18,.66l.31,.21,.12,1.14-.02,.06c.18,.59,.4,1.16,.61,1.74l-.19-1.76,.06-.2c.04,.13,.08,.25,.13,.38v1.58c.14,.4,.26,.81,.42,1.2l.42-.25c.16,.5,.32,1.01,.48,1.51l-.47-.23c.08,.18,.16,.37,.24,.55l.39,.19s0,.02,0,.02l.15,.31c.38,.46,.33,.29,.59,.86,.02,.01,.11,.1,.14,.11-.17-.45,.26-.3,.39-.02,.61,.45,1.03,1.56,1.38,2.22,.35,.32,.88,.82,1.15,1.22,.5,.48,.97,.87,1.47,1.36,1.02,.37,1.58,1.01,2.12,1.83,.38,.09,.66,.61,1.02,.78l-.43-18.79c2.4,.68,9.19,2.63,16.3,4.81v16.06l-.43,.19-.24,.65-3.47,.16-2.09-2.93-2.93,1.05-3.35,.63h0v.26h-.01l2.72,1.42,9.35,2.87,8.5,.27,4.32-.62,8.19-2.13,5.26-3.12h0l-5.86-2.51s-.63-2.1-1.26-1.47c-.63,.63-5.45,6.49-5.45,6.49l-1.34-.3-.02-.72-.62-.43-.49-1.05-.28-11.4c3.15,1.06,5.88,2.05,7.71,2.85,3.22,1.41,6.31,3.2,8.88,4.88l.15,2.97h0s.19-.17,.17-.16,.42-.38,.42-.38l.53-.44h0l.62-.73s.07,.05,.11,.08c.63-.62,1.3-1.22,1.97-1.8v-8.92c.06,.47,.12,.94,.19,1.41v7.35s.02-.02,.03-.03v-7.11c.06,.43,.13,.87,.19,1.3v5.63s.02-.02,.03-.02v-5.41c.07,.45,.14,.9,.21,1.34h-.02v3.91s.02-.02,.03-.03v-3.84c.06,.37,.12,.74,.19,1.1v2.57l.03-.03v-2.38c.06,.34,.13,.67,.19,1v1.22s.02-.02,.03-.02v-1.05c.06,.31,.13,.6,.19,.89,.04-.04,.09-.08,.13-.11-.79-3.56-1.45-8.99-1.8-12.17M1.3,44.74l.12-.28s.03,.02,.05,.02l.11,1.03c-.1-.27-.19-.53-.28-.78m1.39,3.83l-.02,.06c-.07-.2-.14-.4-.2-.59l.22-.18v.71Zm0-1.22l-.36,.29c-.06-.18-.13-.36-.19-.53l-.26-2.38c.29,.19,.56,.42,.8,.65v1.97Zm.03-16.91l-.64-.22c.2-.11,.42-.24,.64-.36v.59Zm.32-.77c.16-.09,.32-.19,.49-.29v1.35l-.49-.17v-.89Zm.69,16.85l-.64,.52v-1.27c.25,.27,.47,.53,.64,.75m-.64,6.39v-1.17c.11,.32,.21,.65,.32,.98l-.32,.2Zm1.09-.66l-.24,.15c-.26-.81-.53-1.61-.79-2.38l1.03,.71v1.52Zm0-2l-1.09-.76v-.86l.27-.81-.27-.09v-.2l.87-.7c.14,.2,.22,.33,.22,.33v3.08Zm.16-19.24l-.5-.17v-1.65c.16-.1,.33-.2,.5-.31v2.13Zm.81,.28l-.5-.18v-2.44c.16-.1,.33-.21,.5-.32v2.93Zm.81,.28l-.5-.18v-3.23c.17-.11,.33-.22,.5-.33v3.74Zm.81,.29l-.51-.18v-4.05c.17-.11,.34-.22,.51-.34v4.57Zm.81,.28l-.51-.18v-4.88c.17-.12,.34-.23,.51-.35v5.42Zm.81-2.11l-.49,.03-.02,.79v-4.34c.17-.12,.34-.24,.51-.37v3.89Zm.81-.86l-.31,.83h-.21s0-4.07,0-4.07c.17-.13,.35-.25,.52-.38v3.62Zm.81-.1l-.52-.04v-3.7c.17-.13,.35-.26,.52-.4v4.14Zm.81,.11v-.05s-.53-.04-.53-.04v-4.37c.17-.14,.35-.28,.53-.42v4.88Zm.81,2.62l-.32-.25-.21-1.01v-6.46c.17-.14,.35-.29,.53-.43v8.15Zm.81,3.47c-.17-.08-.34-.15-.51-.23l-.03-1.22v-.87c.17-.12,.35-.25,.53-.38v2.69Zm0-3.43c-.18,.13-.36,.26-.53,.38v-8.8c.18-.15,.35-.29,.53-.45v8.86Zm.81,3.8c-.18-.08-.36-.16-.54-.24v-3.01c.17-.13,.35-.26,.54-.39v3.65Zm0-4.39c-.18,.14-.36,.27-.54,.4v-8.89c.18-.15,.36-.3,.54-.46v8.95Zm.81,4.76c-.18-.08-.36-.17-.54-.25v-3.96c.18-.13,.36-.27,.54-.41v4.62Zm0-5.37c-.18,.14-.36,.28-.54,.41v-8.99c.18-.16,.36-.31,.54-.48v9.05Zm.81,5.74c-.18-.08-.37-.16-.55-.25v-4.94c.18-.14,.36-.28,.55-.42v5.61Zm0-6.37c-.19,.15-.37,.29-.55,.43v-9.09c.18-.16,.36-.33,.55-.5v9.16Zm.81,6.74c-.18-.08-.37-.17-.55-.25v-5.93c.18-.14,.36-.29,.55-.44v6.62Zm0-7.39c-.19,.15-.37,.3-.55,.44v-9.19c.18-.17,.37-.34,.55-.52v9.26Zm.81,7.76c-.19-.08-.37-.17-.55-.25v-6.94c.18-.15,.37-.3,.55-.45v7.65Zm0-8.43c-.19,.16-.37,.31-.55,.46v-9.3c.19-.18,.37-.36,.55-.54v9.38Zm.81,8.8c-.18-.08-.37-.17-.56-.25v-7.97c.18-.16,.37-.31,.56-.47v8.7Zm0-9.49c-.19,.16-.37,.32-.56,.48v-9.41c.19-.19,.37-.37,.56-.56v9.5Zm.81,9.86c-.19-.09-.37-.17-.56-.25v-9.02c.18-.16,.37-.32,.56-.49v9.77Zm0-10.57c-.19,.17-.37,.33-.56,.5v-9.54c.19-.19,.37-.39,.56-.58v9.62Zm.81,10.94c-.19-.09-.38-.17-.56-.26v-10.09c.19-.17,.38-.34,.56-.51v10.86Zm0-11.67c-.19,.17-.38,.34-.56,.51v-9.66c.19-.2,.38-.4,.56-.6v9.75Zm.81,12.04c-.19-.08-.38-.17-.57-.26v-11.18c.19-.17,.38-.35,.57-.53v11.97Zm0-12.79c-.19,.18-.38,.36-.57,.53v-9.79c.19-.21,.38-.42,.57-.63v9.88Zm.81,13.16c-.19-.09-.38-.17-.57-.26v-12.3c.19-.18,.38-.36,.57-.55v13.1Zm0-13.94c-.19,.19-.38,.37-.57,.55V15.66c.19-.22,.38-.43,.57-.65v10.01Zm.81,14.31c-.19-.09-.38-.17-.58-.26v-13.43c.19-.19,.38-.38,.58-.56v14.26Zm0-15.11c-.19,.19-.38,.39-.58,.57V14.75c.2-.22,.39-.45,.58-.67v10.14Zm.81,15.48c-.19-.09-.39-.18-.58-.26v-14.59c.19-.19,.39-.39,.58-.59v15.44Zm0-16.31c-.19,.2-.39,.4-.58,.6V13.82c.2-.23,.39-.46,.58-.69v10.27Zm.81,16.68c-.2-.09-.39-.18-.58-.27v-15.78c.2-.2,.39-.4,.58-.61v16.65Zm0-17.54c-.14,.15-.27,.3-.41,.44-.06,.06-.11,.12-.17,.18V12.86c.2-.24,.39-.48,.58-.71v10.4Zm.81,17.91c-.2-.09-.39-.18-.59-.27V23.18c.2-.21,.39-.43,.59-.64v17.91Zm0-18.79c-.2,.22-.39,.43-.59,.65V11.87c.2-.25,.4-.49,.59-.73v10.52Zm.81,19.16c-.2-.09-.4-.18-.59-.27V22.31c.2-.22,.4-.43,.59-.66v19.17Zm0-20.07c-.2,.23-.39,.45-.59,.67V10.86c.2-.26,.4-.51,.59-.76v10.64Zm.81,20.44c-.2-.09-.4-.18-.6-.27V21.41c.2-.23,.4-.46,.6-.69v20.47Zm0-21.39c-.2,.23-.4,.47-.6,.7V9.83c.21-.27,.4-.53,.6-.78v10.75Zm.81,21.76c-.2-.09-.4-.18-.6-.28V20.48c.2-.24,.4-.47,.6-.71v21.79Zm0-22.73c-.2,.24-.4,.48-.6,.73V8.77c.21-.28,.41-.55,.6-.81v10.86Zm.81,23.1c-.2-.09-.4-.18-.6-.28V19.52c.2-.24,.41-.49,.6-.73v23.14Zm0-24.1c-.2,.25-.4,.5-.6,.75V7.68c.21-.29,.41-.57,.6-.83v10.98Zm.81,24.47c-.2-.09-.4-.19-.61-.28V18.54c.21-.26,.41-.51,.61-.77v24.53Zm0-25.5c-.2,.26-.4,.52-.61,.77V6.57c.22-.31,.42-.6,.61-.86v11.1Zm.64,25.79c-.15-.07-.3-.14-.44-.2V17.52c.15-.19,.3-.37,.44-.56v25.63Zm0-26.62c-.15,.19-.3,.38-.44,.57V5.42c.17-.25,.32-.47,.44-.65V15.97Zm8.51,45.32h-.5l-2.05-2.15,1.98-2.33,.53-.02,.05,4.5Zm-4.12-48.48v-1.93c.22-.32,.43-.64,.63-.95v2.87h-.63Zm.63,2.88v2.09c-.21-.7-.42-1.39-.62-2.06l.62-.02Zm0,3.48v2.87l-.63,.03v-5.01c.21,.69,.42,1.39,.63,2.1m0,6.34v8.24l-.63,.02v-8.23l.63-.03Zm0,11.71v7.7c-.21-.1-.42-.19-.63-.29v-7.39l.63-.02Zm.41,15.43l2.06,2.16v.31h-4.15l2.1-2.47Zm.4-36.99v4.78c-.22-.71-.43-1.41-.64-2.1v-2.66l.64-.02Zm-.64-2.85v-3.12c.22-.34,.44-.66,.64-.98v4.08l-.64,.02Zm.64,9v.19l-.64,.03v-2.31c.21,.69,.42,1.38,.64,2.09m0,3.65v8.27l-.64,.02v-8.25l.64-.03Zm0,11.73v8.1c-.21-.1-.42-.2-.64-.3v-7.79l.64-.02Zm1.66,18.72v.19l-2.09,2.46-2.18-2.29v-.36h4.27Zm-2.06,3.85l2.23,2.34h-4.22l1.99-2.34Zm2.18-52.63l.38,.41,.04,4.59-.42,.39V7.13Zm0,8.64l.46,.34,.05,5.17-.51,.51v-6.02Zm0,9.95l.56,.53v1.68c-.18-.6-.37-1.2-.56-1.81v-.41Zm0,1.74c.2,.61,.39,1.22,.59,1.82l.04,3.91-.62,.48h0s0-6.22,0-6.22Zm0,9.79l.67,.38,.09,8.83c-.25-.11-.5-.23-.76-.35v-8.86Zm.82,15.24l.02,1.76-.34,.02-2.14-2.24,.22-.26c.76,.24,1.51,.49,2.25,.73m-1.78-27.08v8.29l-.64,.02v-8.27l.64-.03Zm-.64-4.44v-5.32l.64-.02v6.33l-.33,.02c-.11-.34-.21-.67-.31-1m.64,16.2v8.49c-.21-.1-.42-.2-.64-.3v-8.18l.64-.02Zm.16-29.99c.07-.11,.13-.21,.19-.31h.37s.08,.1,.08,.1v5.71l-.08,.08h-.56s0-5.58,0-5.58Zm0,8.45l.56-.02,.08,.06v6.26l-.65,.03v-6.33Zm0,9.79h.15c.17,.52,.33,1.04,.5,1.56v6.72l-.65,.02v-8.3Zm0,11.76l.62-.02h.02v8.89c-.21-.1-.43-.2-.65-.3v-8.57Zm-.16-24.4l-.64,.02v-4.34c.23-.35,.44-.7,.64-1.01v5.33Zm-4.86-.07l-.1-.08-.08-4.99c.05,.19,.12,.4,.18,.61v4.46Zm.32-5.96l4.2,.1c-.79,1.27-1.85,2.9-3.12,4.74-.53-1.8-.97-3.34-1.31-4.5l.23-.35Zm1.48,27.03v-8.2l.63-.03v8.22h-.63Zm.63,3.47v7.31c-.21-.1-.42-.19-.63-.29v-7h.63Zm-.63-15.14v-6.37h.4c.08,.23,.15,.49,.23,.75v5.6l-.63,.03Zm0-9.27v-.78c.22-.31,.43-.62,.63-.92v1.68h-.63Zm-.8,20.97v-8.18l.63-.03v8.2h-.63Zm.63,3.47v6.91c-.21-.1-.42-.19-.63-.29v-6.61l.63-.02Zm-.63-15.11v-6.38l.63-.02v6.37l-.63,.03Zm-.49-9.28h-.31s0,0,0,0v-3.99c.19,.65,.4,1.37,.62,2.14v1.41c-.1,.15-.21,.29-.31,.44m.31,2.9v6.38h-.24s-.38-.3-.38-.3v-5.98l.07-.08,.55-.02Zm-.62,14.12v-3.71l.5-.55h.12s0,8.17,0,8.17h-.24s-.32-.32-.32-.32l-.06-3.59Zm.13,7.79l.44-.41h.06s0,6.52,0,6.52c-.13-.06-.27-.12-.4-.19l-.1-5.92Zm.21,12.86c.53,.17,1.07,.33,1.6,.5l.96,1.01-2.02,2.37h-.49l-.06-3.88Zm.1,6.27h.21s2.26,2.36,2.26,2.36l-1.86,2.18h-.53l-.07-4.54Zm5.64,8.69l-1.48,.31-.53-.08-.71-.48-.81,.25h0s-.69-.1-.69-.1l-.92,.35-.37-.99-.02-1.3h.64v-.56h4.64v.56h.73v1.05s-.49,.99-.49,.99Zm1.99-31.97s-.02-.05-.03-.08l-.63-25.89c.18,.78,.41,1.74,.66,2.81v23.16Zm.41,13.9s-.07-.03-.1-.05l-.14-5.84v-6.29c.08,.23,.16,.46,.24,.69v11.5Zm0-12.71c-.08-.23-.16-.47-.24-.7V11.1c.08,.33,.16,.68,.24,1.03v22.61Zm.41,12.9c-.08-.04-.16-.08-.25-.11v-11.11c.08,.23,.17,.46,.25,.68v10.54Zm0-11.73c-.08-.23-.16-.46-.25-.7V12.82c.08,.34,.16,.68,.25,1.03v22.05Zm.41,11.93c-.08-.04-.16-.08-.25-.12v-10.18c.03,.06,.05,.13,.08,.2,.06,.16,.12,.31,.17,.47v9.63Zm0-10.79c-.08-.22-.16-.45-.25-.68V14.54c.08,.34,.17,.68,.25,1.03v21.47Zm.41,10.98c-.08-.04-.17-.08-.25-.12v-9.27c.09,.23,.17,.44,.25,.66v8.73Zm0-9.87c-.07-.19-.14-.37-.21-.56-.01-.03-.03-.07-.04-.11V16.24c.08,.34,.17,.69,.25,1.04v20.88Zm.41,10.07c-.08-.04-.17-.08-.25-.12v-8.39c.08,.22,.17,.43,.25,.65v7.86Zm0-8.97c-.08-.22-.17-.44-.25-.67V17.93c.08,.34,.17,.69,.25,1.04v20.28Zm.41,9.17c-.09-.04-.17-.08-.26-.12v-7.54c.09,.22,.17,.43,.26,.64v7.02Zm0-8.1c-.09-.22-.17-.44-.26-.66V19.61c.08,.34,.17,.69,.26,1.04v19.68Zm.41,8.3c-.09-.04-.17-.08-.26-.13v-6.71c.09,.21,.17,.42,.26,.63v6.21Zm0-7.25c-.09-.21-.17-.43-.26-.65V21.27c.08,.35,.17,.69,.26,1.04v19.06Zm.41,7.45c-.08-.04-.18-.09-.26-.12v-5.91c.09,.21,.18,.42,.26,.62v5.42Zm0-6.42c-.09-.21-.18-.43-.26-.64V22.91c.09,.35,.17,.69,.26,1.04v18.45Zm.41,6.62c-.08-.04-.17-.08-.26-.13v-5.14c.09,.21,.18,.41,.26,.62v4.65Zm0-5.61c-.09-.21-.17-.42-.26-.64V24.54c.09,.35,.17,.69,.26,1.04v17.82Zm.41,5.82c-.09-.04-.17-.09-.27-.13v-4.39c.09,.2,.18,.4,.27,.6v3.92Zm0-4.84c-.09-.2-.18-.42-.27-.63V26.15c.09,.35,.18,.69,.27,1.03v17.19Zm.41,5.05c-.09-.05-.18-.09-.27-.14v-3.68c.09,.2,.18,.4,.27,.59v3.22Zm0-4.1c-.09-.2-.18-.41-.27-.62V27.75c.09,.34,.18,.69,.27,1.03v16.55Zm.41,4.3c-.09-.04-.18-.09-.27-.14v-2.99c.09,.19,.18,.38,.27,.57v2.56Zm0-3.38c-.09-.2-.18-.4-.27-.61V29.32c.09,.34,.18,.69,.27,1.03v15.91Zm.41,3.59c-.09-.05-.18-.09-.27-.14v-2.34c.09,.19,.18,.37,.27,.55v1.92Zm0-2.69c-.09-.19-.18-.39-.27-.59v-15.69c.09,.34,.18,.68,.27,1.02v15.26Zm.42,2.9c-.09-.05-.19-.09-.28-.14v-1.72c.09,.18,.18,.36,.28,.54v1.32Zm0-2.04c-.09-.19-.18-.38-.28-.57v-15.05c.09,.34,.18,.68,.28,1.01v14.61Zm.41,2.26c-.1-.05-.19-.1-.28-.15v-1.13c.09,.18,.19,.35,.28,.52v.76Zm0-1.42c-.1-.18-.19-.37-.28-.56v-14.4c.09,.34,.19,.67,.28,1v13.96Zm.41,1.64c-.09-.05-.19-.1-.28-.15v-.59c.09,.17,.19,.34,.28,.5v.23Zm0-.84c-.09-.17-.19-.36-.28-.54v-13.76c.09,.33,.19,.66,.28,.98v13.32Zm.41,.76c-.09-.17-.19-.34-.28-.52v-13.11c.1,.33,.19,.65,.28,.96v12.67Zm.41,.53c-.06-.03-.11-.07-.17-.1-.04-.07-.08-.14-.12-.21v-12.48c.1,.32,.19,.63,.29,.94v11.84Zm.41,.23c-.1-.05-.19-.11-.29-.16v-11.5c.1,.31,.19,.62,.29,.93v10.74Zm.41,.23c-.1-.06-.2-.11-.29-.16v-10.42c.1,.31,.19,.61,.29,.91v9.67Zm.41,.23c-.1-.06-.2-.11-.29-.17v-9.37c.1,.3,.2,.6,.29,.89v8.64Zm.41,.24c-.1-.06-.2-.12-.3-.17v-8.35c.1,.3,.2,.59,.3,.88v7.65Zm.41,.25c-.1-.06-.2-.12-.3-.18v-7.39c.1,.29,.2,.58,.3,.86v6.71Zm.41,.24c-.1-.06-.2-.12-.3-.18v-6.46c.1,.28,.2,.56,.3,.83v5.81Zm.41,.25c-.1-.06-.2-.12-.3-.18v-5.57c.1,.27,.2,.54,.3,.81v4.95Zm.41,.26c-.1-.06-.2-.13-.31-.19v-4.74c.1,.26,.21,.52,.31,.77v4.15Zm.41,.26c-.1-.06-.21-.13-.31-.19v-3.96c.1,.26,.21,.5,.31,.74v3.41Zm.41,.26c-.1-.06-.21-.13-.31-.19v-3.24c.1,.24,.21,.48,.31,.7v2.73Zm.41,.27c-.1-.07-.21-.13-.31-.2v-2.57c.1,.23,.21,.45,.31,.66v2.11Zm.41,.27c-.11-.07-.21-.14-.32-.21v-1.98c.11,.22,.21,.42,.32,.62v1.57Zm.41,.27c-.11-.07-.21-.14-.32-.21v-1.45c.11,.2,.21,.39,.32,.57v1.09Zm.41,.14s-.05,.06-.07,.09c-.08-.06-.17-.11-.25-.16v-1c.11,.18,.22,.35,.32,.51v.56Zm.41,.42c-.1-.07-.19-.13-.29-.2,.08-.09,.15-.19,.23-.28,.02,.03,.04,.05,.06,.08v.41Zm.41,.29c-.11-.07-.22-.15-.33-.22v-.36c.11,.14,.22,.26,.33,.38v.2Zm0-.5c-.11-.13-.22-.26-.33-.41v-.08c.11-.16,.22-.33,.33-.51v1Zm.41,.43c-.11-.1-.22-.21-.33-.33v-1.24c.11-.19,.22-.39,.33-.6v2.17Zm.41,.31c-.11-.06-.22-.14-.33-.23v-2.4c.11-.22,.22-.46,.33-.69v3.33Zm.41,.18c-.11-.03-.22-.07-.33-.14v-3.55c.11-.25,.23-.51,.33-.77v4.46Zm.41,.76c-.11-.08-.22-.16-.34-.25v-.27c.11,.02,.23,.02,.34,.02v.5Zm0-.73c-.11,.01-.22,.01-.34-.01v-4.68c.12-.29,.23-.58,.34-.87v5.56Zm.41,1.03c-.11-.08-.22-.17-.34-.25v-.57s.1-.01,.14-.02c.07-.02,.13-.05,.2-.08v.91Zm.41,.31c-.11-.09-.23-.17-.34-.26v-1c.11-.07,.23-.16,.34-.26v1.52Zm.41,.31c-.11-.08-.23-.17-.34-.26v-1.64c.11-.11,.23-.25,.34-.41v2.31Zm.12,.09s-.03-.02-.05-.04v-2.45s.04-.05,.05-.07v2.57Zm0-2.94s-.03,.05-.05,.08v-7.95c-.02,.07-.04,.13-.07,.2v7.85c-.11,.17-.23,.33-.34,.46v-7.36c-.02,.06-.05,.12-.07,.18v7.25c-.11,.12-.23,.23-.34,.3v-6.69c-.02,.06-.05,.11-.07,.17v6.56c-.08,.05-.17,.09-.25,.11-.03,0-.06,0-.09,.01v-5.76c.56-1.53,1-3.05,1.28-4.1v8.67Zm3.11,.37l-.2,.15v-2.93l.17,.16,.03,2.62Zm-.04-4.49l-.15,.15v-2.2l.13,.1,.02,1.95Zm-2.4-1.94l.11-.13h.07c.03,.24,.06,.49,.09,.74h-.03v1.66h-.01l-.19-.16-.03-2.11Zm.06,3.81l.17-.19v.62c-.05,.13-.11,.26-.16,.38v-.82Zm0,1.28c.05-.12,.11-.24,.16-.36v1.93h-.01l-.12-.12-.03-1.45Zm.05,3.03l.11-.1v1.68s-.05-.04-.08-.07l-.02-1.52Zm.29,6.31h-.19l-.02-1.15c.26,.17,.51,.34,.75,.51l-.55,.64Zm.2-12.18c-.11-.85-.2-1.66-.29-2.4l1.39-.05c-.22,.8-.47,1.63-.74,2.43l-.36,.02Zm.31,3.42c.05,.32,.09,.64,.14,.96h-.14s0-.96,0-.96Zm-.22,.97v-2.54c.06,.46,.12,.91,.19,1.36v1.17h-.19Zm.19,1.31v2.28c-.06-.05-.12-.1-.19-.15v-2.13h.19Zm-.41-1.3v-2.53c.06-.14,.11-.28,.17-.42,0,.06,.02,.12,.02,.19v2.75h-.19Zm.19,1.31v2.1c-.06-.05-.13-.1-.19-.15v-1.94h.19Zm-.21-5.7h-.2s0-1.64,0-1.64c.06,.52,.13,1.07,.2,1.64m-.19,1.32h.23c-.08,.19-.16,.4-.24,.59v-.59h0Zm.18,.62v2.45h-.19s0-2,0-2c.07-.15,.13-.3,.19-.46m-.16,3.77h.16s0,1.92,0,1.92c-.06-.05-.12-.1-.19-.15v-1.73l.03-.03Zm.82,2.44c-.06-.05-.13-.1-.19-.15v-2.3h.19s0,2.46,0,2.46Zm0-4.51c-.07-.45-.13-.89-.19-1.33v-1.03h.19s0,2.36,0,2.36Zm.22,4.69c-.06-.05-.13-.1-.19-.16v-2.49h.13c.02,.11,.04,.23,.06,.34v2.31Zm0-3.96h-.11c-.03-.17-.05-.35-.08-.53v-2.57h.19s0,3.1,0,3.1Zm0-4.42h-.18c.06-.18,.12-.36,.18-.55v.55Zm.22,8.56c-.06-.05-.13-.1-.19-.16v-2.15c.06,.36,.13,.71,.19,1.05v1.26Zm0-4.15h-.19s0-3.11,0-3.11h.19s0,3.11,0,3.11Zm0-4.42h-.19s0-.63,0-.63h0c.07-.22,.13-.43,.19-.65v1.28Zm.22,8.75c-.06-.05-.13-.11-.19-.16v-1.13c.06,.32,.13,.64,.19,.94v.34Zm0-1.1c-.06-.33-.13-.67-.19-1.02v-.9h.19s0,1.92,0,1.92Zm0-3.24h-.19s0-3.11,0-3.11h.19s0,3.11,0,3.11Zm0-4.42h-.19s0-1.38,0-1.38c.07-.23,.13-.46,.19-.68v2.06Zm.22,8.73c-.07-.29-.13-.6-.19-.92v-2.08h.19s0,3,0,3Zm0-4.31h-.19s0-3.12,0-3.12h.19s0,3.12,0,3.12Zm0-4.43h-.19s0-2.15,0-2.15c.02-.08,.04-.15,.06-.22h.13s0,2.38,0,2.38Zm-1.79-3.42c-.1-.95-.18-1.68-.22-2.1l.14-.21,1.98,.05,.23,.26v.59c-.1,.42-.21,.89-.33,1.37l-1.81,.04Zm2.01,12.56c-.05-.05-.11-.09-.16-.14,0-.04-.02-.08-.03-.12v-3.14h.11s.08,.04,.08,.04v3.36Zm0-4.72h-.01s-.18,0-.18,0v-3.13h.04s.15,.14,.15,.14v2.98Zm0-4.48l-.05,.05h-.14s0-2.38,0-2.38h.09s.1,.07,.1,.07v2.25Zm.03,9.23v-3.37l.21,.12,.03,3.46c-.08-.07-.16-.14-.25-.21m1.03,.89s-.01-.01-.02-.02l-.29-11.63c.09,.78,.2,1.62,.31,2.49v9.16Z"/></g></g></svg>